<?xml version="1.0" encoding="UTF-8"?><svg id="Camada_1" xmlns="http://www.w3.org/2000/svg" xmlns:xlink="http://www.w3.org/1999/xlink" viewBox="0 0 611.86 157.77"><defs><linearGradient id="Gradiente_sem_nome_3" x1="0" y1="54.8" x2="611.86" y2="54.8" gradientUnits="userSpaceOnUse"><stop offset="0" stop-color="#8b52ba"/><stop offset="0" stop-color="#8c52b7"/><stop offset=".19" stop-color="#bd6474"/><stop offset=".34" stop-color="#e07143"/><stop offset=".46" stop-color="#f67925"/><stop offset=".53" stop-color="#ff7d1a"/><stop offset=".63" stop-color="#ff602d"/><stop offset=".79" stop-color="#ff3c47"/><stop offset=".92" stop-color="#ff2558"/><stop offset="1" stop-color="#ff1d5e"/></linearGradient><filter id="drop-shadow-7" filterUnits="userSpaceOnUse"><feOffset dx="4" dy="4"/><feGaussianBlur result="blur" stdDeviation="5"/><feFlood flood-color="#000" flood-opacity=".4"/><feComposite in2="blur" operator="in"/><feComposite in="SourceGraphic"/></filter><filter id="drop-shadow-8" filterUnits="userSpaceOnUse"><feOffset dx="4" dy="4"/><feGaussianBlur result="blur-2" stdDeviation="5"/><feFlood flood-color="#000" flood-opacity=".4"/><feComposite in2="blur-2" operator="in"/><feComposite in="SourceGraphic"/></filter></defs><path d="m604.7,33.54h0c-3.59-3.45-8.03-5.87-13.22-7.18-3.83-.97-7.8-1.46-11.83-1.46-2.84,0-5.53.22-8.07.64.18-1.22.27-2.47.27-3.74,0-7-2.91-13.06-8.21-17.07-4.16-3.14-9.44-4.73-15.69-4.73-6.74,0-12.68,1.87-17.64,5.56-6.16,4.58-9.56,11.69-9.56,20.04,0,.34.01.68.03,1.02-2.69-1.06-5.65-1.45-8.63-1.05-1.34.18-2.71.32-4.09.44-2.26.19-4.9.32-7.84.38-2.52-.98-5.28-1.48-8.17-1.48-4.24,0-8.49.94-12.67,2.76.44-1.88.67-3.84.67-5.86,0-7-2.91-13.06-8.21-17.07-4.16-3.14-9.44-4.73-15.69-4.73-6.74,0-12.68,1.87-17.64,5.56-6.16,4.58-9.56,11.7-9.56,20.04,0,.73.04,1.45.11,2.17-3.44-1.64-7.88-2.87-13.51-2.87-6.41,0-12.51,1.17-18.12,3.48-4.74,1.96-9.11,4.57-13,7.78-.8-1-1.62-1.88-2.4-2.64-5.91-5.72-13.88-8.62-23.68-8.62-6.76,0-13.02,1.18-18.61,3.5-3.31,1.38-6.38,3.08-9.21,5.08-3.58-3.42-8-5.81-13.15-7.12h0c-3.83-.97-7.8-1.46-11.83-1.46-6.6,0-12.43,1.13-17.31,3.34-5.57,2.53-9.94,6.2-12.99,10.9,0,.01-.02.03-.02.04-1.29-2.43-2.85-4.3-4.29-5.68h0c-3.59-3.45-8.03-5.87-13.22-7.18-3.83-.97-7.8-1.46-11.83-1.46-6.6,0-12.42,1.12-17.31,3.35-1.26.57-2.44,1.21-3.57,1.89-.45-.32-.91-.63-1.4-.92-4.73-2.87-10.32-4.32-16.62-4.32s-12.31,1.13-17.93,3.36c-1.21.48-2.39,1.01-3.56,1.57l1.93-7.01c1.69-6.15-.02-12.8-4.48-17.36-4.46-4.56-11.07-6.43-17.26-4.87-1.96.49-4.01.91-6.1,1.25-3.42.55-7.39.87-11.8.95-6.8.12-12.82,4.53-14.98,10.98-1.32,3.95-1.02,8.3.75,12.03-3.44.71-6.71,1.85-9.79,3.4-1.37.69-2.69,1.45-3.98,2.26-.95-.82-1.98-1.58-3.08-2.25h0c-4.73-2.87-10.32-4.32-16.62-4.32s-12.31,1.13-17.93,3.36c-2.55,1.01-5,2.22-7.35,3.6l-1.24-.41c-3.36-3.23-8.84-6.55-17.18-6.55-4.32,0-8.35.83-12.02,2.49-3.34-1.65-7.19-2.49-11.48-2.49-3.92,0-7.68.61-11.19,1.82-4.21,1.45-7.91,3.83-11,7.06-2.86,2.99-5.14,6.77-6.79,11.23l-2.41,6.72c-1.74,4.86-1.01,10.29,1.97,14.52.48.68,1.01,1.32,1.58,1.91l-4.34,15.44c-1.66,5.89-.49,12.06,3.2,16.93,3.69,4.87,9.32,7.67,15.43,7.67h8.59c8.79,0,16.49-5.94,18.73-14.45l1.35-5.17c.89,3.14,2.29,6.06,4.21,8.63,3.22,4.33,7.5,7.58,12.7,9.69,4.42,1.79,9.22,2.7,14.28,2.7,5.95,0,11.52-1.01,16.55-3.01,2.63-1.05,5.1-2.3,7.4-3.72,1.6,1.41,3.37,2.62,5.3,3.61,4.08,2.08,8.51,3.13,13.15,3.13,4.98,0,9.62-1.04,13.71-3.05,3.32,1.76,7.64,3.05,13.19,3.05,3.29,0,6.61-.51,9.87-1.52,2.85-.88,5.53-2.23,8-4.03,1.68,1.11,3.5,2.06,5.45,2.85,4.42,1.79,9.22,2.7,14.28,2.7,5.95,0,11.52-1.01,16.55-3.01,3-1.19,5.79-2.64,8.36-4.32,3.19,2.61,6.95,4.51,11.23,5.67,4.1,1.11,8.43,1.67,12.86,1.67,6.56,0,12.38-1.15,17.32-3.42,5.32-2.45,9.53-5.91,12.57-10.28.97,1.59,2.02,2.9,3.01,3.94,3.69,3.9,8.36,6.63,13.88,8.12,4.1,1.11,8.43,1.67,12.86,1.67,6.56,0,12.39-1.15,17.33-3.43,2.5-1.15,4.75-2.54,6.76-4.13,5.78,5.01,13.34,7.55,22.52,7.55,6.76,0,13.02-1.18,18.61-3.5,4.14-1.72,7.92-3.95,11.3-6.64,1.24,1.34,2.51,2.46,3.73,3.37,6.03,4.49,13.32,6.77,21.66,6.77,5.98,0,11.46-1.1,16.29-3.26,2.7-1.21,5.21-2.67,7.52-4.35,1.13,1.2,2.39,2.28,3.77,3.21,4.34,2.92,9.57,4.4,15.52,4.4,3.29,0,6.61-.51,9.87-1.52,2.29-.71,4.46-1.73,6.5-3.02,3.68,2.48,8.94,4.54,16.23,4.54,4.28,0,8.4-.8,12.23-2.37.27-.11.54-.22.8-.34,3.2,1.58,7.3,2.71,12.47,2.71,3.29,0,6.61-.51,9.87-1.52,2.6-.8,5.06-2,7.35-3.57.31.23.63.46.95.68,4.34,2.92,9.57,4.4,15.52,4.4,3.29,0,6.61-.51,9.87-1.52,2.46-.76,4.78-1.87,6.94-3.3,2.32,1.35,4.86,2.41,7.62,3.15,4.1,1.11,8.43,1.67,12.86,1.67,6.56,0,12.38-1.15,17.32-3.42,5.53-2.55,9.88-6.18,12.93-10.79,3.15-4.75,4.74-10.06,4.74-15.78,0-2.87-.39-5.76-1.15-8.64.29-.23.57-.46.85-.7,2.9-2.53,5.09-5.7,6.52-9.42,1.18-3.11,1.78-6.28,1.78-9.44,0-9.08-3.89-14.73-7.16-17.86Z" fill="url(#Gradiente_sem_nome_3)" stroke-width="0"/><g filter="url(#drop-shadow-7)"><path d="m313.71,40.9c-2.63-.67-5.35-1-8.15-1-4.47,0-8.17.67-11.1,2-2.94,1.33-5.13,3.13-6.6,5.4-1.47,2.27-2.2,4.83-2.2,7.7s.6,5.35,1.8,7.65c1.2,2.3,2.6,4.75,4.2,7.35,1.73,2.73,3.13,5.33,4.2,7.8,1.07,2.47,1.6,4.83,1.6,7.1s-.69,4.18-2.05,5.55c-1.37,1.37-3.08,2.05-5.15,2.05-.67,0-1.28-.05-1.85-.15s-1.12-.28-1.65-.55c.47-1,1.05-2.4,1.75-4.2.7-1.8,1.05-3.77,1.05-5.9,0-2.67-.6-4.8-1.8-6.4-1.2-1.6-2.77-2.4-4.7-2.4-2.07,0-3.72.87-4.95,2.6-1.23,1.73-1.85,3.83-1.85,6.3,0,3.27.88,5.83,2.65,7.7,1.77,1.87,4.07,3.18,6.9,3.95,2.83.77,5.82,1.15,8.95,1.15,4.4,0,8.08-.68,11.05-2.05,2.96-1.37,5.2-3.18,6.7-5.45,1.5-2.27,2.25-4.77,2.25-7.5,0-2.27-.45-4.58-1.35-6.95-.9-2.37-2.45-5.42-4.65-9.15-.93-1.6-1.87-3.15-2.8-4.65-.94-1.5-1.69-3-2.25-4.5-.57-1.5-.85-2.98-.85-4.45.07-2.53.68-4.47,1.85-5.8,1.17-1.33,2.92-2,5.25-2,1.13,0,1.96.13,2.5.4-.73.8-1.45,2.03-2.15,3.7-.7,1.67-1.05,3.57-1.05,5.7,0,2.47.57,4.48,1.7,6.05,1.13,1.57,2.7,2.35,4.7,2.35,1.6,0,2.92-.45,3.95-1.35,1.03-.9,1.82-2.05,2.35-3.45.53-1.4.8-2.77.8-4.1,0-3.07-.85-5.42-2.55-7.05-1.7-1.63-3.87-2.78-6.5-3.45Z" fill="#fff" stroke-width="0"/><path d="m358.36,39.9c-4.8,0-9.08.78-12.85,2.35-3.77,1.57-7.03,3.68-9.8,6.35-2.77,2.67-5.05,5.65-6.85,8.95-1.8,3.3-3.13,6.68-4,10.15-.87,3.47-1.3,6.77-1.3,9.9,0,5.47,1.52,9.67,4.55,12.6,3.03,2.93,7.45,4.4,13.25,4.4,4.8,0,9.08-.78,12.85-2.35,3.77-1.57,7.03-3.68,9.8-6.35,2.77-2.67,5.05-5.65,6.85-8.95s3.13-6.68,4-10.15c.87-3.47,1.3-6.77,1.3-9.9,0-5.47-1.52-9.67-4.55-12.6-3.03-2.93-7.45-4.4-13.25-4.4Zm-.1,20.15c-.87,4.23-1.98,8.28-3.35,12.15-1.37,3.87-2.83,7.33-4.4,10.4-1.57,3.07-3.1,5.5-4.6,7.3-1.5,1.8-2.78,2.7-3.85,2.7-.67,0-1.15-.42-1.45-1.25-.3-.83-.45-2.28-.45-4.35,0-3.73.42-7.67,1.25-11.8.83-4.13,1.93-8.17,3.3-12.1,1.37-3.93,2.85-7.5,4.45-10.7,1.6-3.2,3.17-5.75,4.7-7.65,1.53-1.9,2.87-2.85,4-2.85.47,0,.87.33,1.2,1,.33.67.5,2.27.5,4.8,0,4-.43,8.12-1.3,12.35Z" fill="#fff" stroke-width="0"/><path d="m425.16,43c-2.27-2.07-5.47-3.1-9.6-3.1-4.47,0-8.6.78-12.4,2.35-3.8,1.57-7.2,3.68-10.2,6.35-3,2.67-5.55,5.68-7.65,9.05-2.1,3.37-3.7,6.87-4.8,10.5-1.1,3.63-1.65,7.18-1.65,10.65,0,5.47,1.7,9.47,5.1,12s7.63,3.8,12.7,3.8c3.87,0,7.25-.65,10.15-1.95,2.9-1.3,5.4-2.98,7.5-5.05,2.1-2.07,3.85-4.2,5.25-6.4l-2-.8c-2.07,3.07-4.1,5.17-6.1,6.3-2,1.13-3.97,1.7-5.9,1.7-2.4,0-4.33-.8-5.8-2.4-1.47-1.6-2.2-4.2-2.2-7.8,0-4.4.53-8.75,1.6-13.05,1.07-4.3,2.5-8.2,4.3-11.7,1.8-3.5,3.87-6.3,6.2-8.4,2.33-2.1,4.73-3.15,7.2-3.15.73,0,1.37.1,1.9.3.53.2,1.03.5,1.5.9-2.67.8-5.04,2.4-7.1,4.8-2.07,2.4-3.1,5.23-3.1,8.5,0,2.27.7,4,2.1,5.2,1.4,1.2,2.97,1.8,4.7,1.8,2.13,0,4.08-.65,5.85-1.95,1.77-1.3,3.18-2.95,4.25-4.95s1.6-4.07,1.6-6.2c0-2.8-1.13-5.23-3.4-7.3Z" fill="#fff" stroke-width="0"/><path d="m446.21,30.5c1.5,1.13,3.68,1.7,6.55,1.7,3.47,0,6.38-.95,8.75-2.85,2.37-1.9,3.55-4.42,3.55-7.55,0-2.27-.75-3.97-2.25-5.1-1.5-1.13-3.72-1.7-6.65-1.7-3.47,0-6.37.87-8.7,2.6-2.33,1.73-3.5,4.4-3.5,8,0,2.13.75,3.77,2.25,4.9Z" fill="#fff" stroke-width="0"/><path d="m456.46,53.9c.53-1.6.8-3.22.8-4.85s-.33-3.13-1-4.5c-.67-1.37-1.77-2.48-3.3-3.35-1.54-.87-3.57-1.3-6.1-1.3-2.27,0-4.37.33-6.3,1-1.93.67-3.62,1.75-5.05,3.25-1.43,1.5-2.62,3.52-3.55,6.05l-2.8,7.8h1.9l2.3-6.1c.93-2.4,1.83-4.05,2.7-4.95.87-.9,1.8-1.35,2.8-1.35,1.53,0,1.83,1.4.9,4.2l-9.2,27.6c-1.27,3.87-1.7,7.08-1.3,9.65.4,2.57,1.52,4.47,3.35,5.7,1.83,1.23,4.22,1.85,7.15,1.85,1.8,0,3.62-.28,5.45-.85,1.83-.57,3.52-1.58,5.05-3.05,1.53-1.47,2.8-3.6,3.8-6.4l2.5-7.3h-1.9l-2.1,5.6c-1.07,2.8-2.07,4.55-3,5.25-.93.7-1.7,1.05-2.3,1.05-.67,0-1.17-.28-1.5-.85-.33-.57-.23-1.68.3-3.35l10.4-30.8Z" fill="#fff" stroke-width="0"/><path d="m517.66,39.9c-2.73.47-5.52.82-8.35,1.05-2.83.23-6.08.38-9.75.45l-1.25,4.16c-.15-1.62-.58-2.84-1.3-3.66-1.17-1.33-2.82-2-4.95-2-2.8,0-5.7.83-8.7,2.5-3,1.67-5.88,3.92-8.65,6.75-2.77,2.83-5.27,6.07-7.5,9.7-2.23,3.63-4,7.45-5.3,11.45s-1.95,7.93-1.95,11.8,1.02,7.08,3.05,9.25c2.03,2.17,5.15,3.25,9.35,3.25,2.33,0,4.52-.42,6.55-1.25,2.03-.83,3.87-2.27,5.5-4.3,1.22-1.52,2.28-3.46,3.18-5.81-.08.83-.12,1.63-.09,2.36.1,2.27.65,4.1,1.65,5.5,1.73,2.33,4.63,3.5,8.7,3.5,1.8,0,3.62-.28,5.45-.85,1.83-.57,3.53-1.58,5.1-3.05,1.57-1.47,2.82-3.6,3.75-6.4l2.5-7.3h-1.9l-2.1,5.6c-1.07,2.8-2.07,4.55-3,5.25-.93.7-1.7,1.05-2.3,1.05-.47,0-.85-.12-1.15-.35-.3-.23-.47-.67-.5-1.3-.03-.63.12-1.48.45-2.55l13.5-44.8Zm-20.43,9.27l-7.36,24.53c-.63,1.96-1.23,3.66-1.81,5.1-.93,2.33-1.8,4.15-2.6,5.45-.8,1.3-1.57,2.22-2.3,2.75-.73.53-1.43.8-2.1.8-.87,0-1.47-.42-1.8-1.25-.33-.83-.5-2.18-.5-4.05,0-3.6.38-7.2,1.15-10.8.77-3.6,1.8-7.02,3.1-10.25,1.3-3.23,2.7-6.1,4.2-8.6s2.97-4.47,4.4-5.9,2.72-2.15,3.85-2.15c.8,0,1.37.38,1.7,1.15.3.7.32,1.78.07,3.22Z" fill="#fff" stroke-width="0"/><path d="m548.26,53.9c.53-1.6.8-3.22.8-4.85s-.33-3.13-1-4.5c-.67-1.37-1.77-2.48-3.3-3.35-1.54-.87-3.57-1.3-6.1-1.3-2.27,0-4.37.33-6.3,1-1.93.67-3.62,1.75-5.05,3.25-1.43,1.5-2.62,3.52-3.55,6.05l-2.8,7.8h1.9l2.3-6.1c.93-2.4,1.83-4.05,2.7-4.95.87-.9,1.8-1.35,2.8-1.35,1.53,0,1.83,1.4.9,4.2l-9.2,27.6c-1.27,3.87-1.7,7.08-1.3,9.65.4,2.57,1.52,4.47,3.35,5.7,1.83,1.23,4.22,1.85,7.15,1.85,1.8,0,3.62-.28,5.45-.85,1.83-.57,3.52-1.58,5.05-3.05,1.53-1.47,2.8-3.6,3.8-6.4l2.5-7.3h-1.9l-2.1,5.6c-1.07,2.8-2.07,4.55-3,5.25-.93.7-1.7,1.05-2.3,1.05-.67,0-1.17-.28-1.5-.85-.33-.57-.23-1.68.3-3.35l10.4-30.8Z" fill="#fff" stroke-width="0"/><path d="m538.01,30.5c1.5,1.13,3.68,1.7,6.55,1.7,3.47,0,6.38-.95,8.75-2.85,2.37-1.9,3.55-4.42,3.55-7.55,0-2.27-.75-3.97-2.25-5.1-1.5-1.13-3.72-1.7-6.65-1.7-3.47,0-6.37.87-8.7,2.6-2.33,1.73-3.5,4.4-3.5,8,0,2.13.75,3.77,2.25,4.9Z" fill="#fff" stroke-width="0"/><path d="m594.31,44.35c-1.7-1.63-3.87-2.78-6.5-3.45-2.63-.67-5.35-1-8.15-1-4.47,0-8.17.67-11.1,2-2.93,1.33-5.13,3.13-6.6,5.4-1.47,2.27-2.2,4.83-2.2,7.7s.6,5.35,1.8,7.65c1.2,2.3,2.6,4.75,4.2,7.35,1.73,2.73,3.13,5.33,4.2,7.8,1.07,2.47,1.6,4.83,1.6,7.1s-.68,4.18-2.05,5.55c-1.37,1.37-3.08,2.05-5.15,2.05-.67,0-1.29-.05-1.85-.15-.57-.1-1.12-.28-1.65-.55.46-1,1.05-2.4,1.75-4.2.7-1.8,1.05-3.77,1.05-5.9,0-2.67-.6-4.8-1.8-6.4-1.2-1.6-2.77-2.4-4.7-2.4-2.07,0-3.72.87-4.95,2.6-1.23,1.73-1.85,3.83-1.85,6.3,0,3.27.88,5.83,2.65,7.7,1.77,1.87,4.07,3.18,6.9,3.95,2.83.77,5.82,1.15,8.95,1.15,4.4,0,8.08-.68,11.05-2.05,2.97-1.37,5.2-3.18,6.7-5.45,1.5-2.27,2.25-4.77,2.25-7.5,0-2.27-.45-4.58-1.35-6.95-.9-2.37-2.45-5.42-4.65-9.15-.93-1.6-1.87-3.15-2.8-4.65s-1.68-3-2.25-4.5-.85-2.98-.85-4.45c.07-2.53.68-4.47,1.85-5.8,1.17-1.33,2.92-2,5.25-2,1.13,0,1.97.13,2.5.4-.73.8-1.45,2.03-2.15,3.7-.7,1.67-1.05,3.57-1.05,5.7,0,2.47.57,4.48,1.7,6.05,1.13,1.57,2.7,2.35,4.7,2.35,1.6,0,2.92-.45,3.95-1.35,1.03-.9,1.82-2.05,2.35-3.45.53-1.4.8-2.77.8-4.1,0-3.07-.85-5.42-2.55-7.05Z" fill="#fff" stroke-width="0"/></g><g filter="url(#drop-shadow-8)"><path d="m66.81,50.25c0-2.73-.83-5.03-2.5-6.9-1.67-1.87-4.07-2.8-7.2-2.8-2.67,0-5,.58-7,1.75-2,1.17-3.83,3.2-5.5,6.1-.62,1.08-1.24,2.3-1.86,3.67.09-.79.12-1.58.11-2.37-.03-1.63-.35-3.15-.95-4.55-.6-1.4-1.57-2.52-2.9-3.35-1.33-.83-3.13-1.25-5.4-1.25s-4.37.33-6.3,1c-1.93.67-3.62,1.75-5.05,3.25-1.43,1.5-2.62,3.52-3.55,6.05l-2.8,7.8h1.9l2.3-6.1c.93-2.4,1.83-4.05,2.7-4.95.87-.9,1.8-1.35,2.8-1.35.73,0,1.17.32,1.3.95.13.63,0,1.72-.4,3.25l-12.2,43.4h17.7l7.36-28.08c1.61-4.85,3.14-8.76,4.59-11.72,1.77-3.6,3.43-6.22,5-7.85,1.57-1.63,3.07-2.65,4.5-3.05,1.43-.4,2.78-.6,4.05-.6.27,0,.52.03.75.1.23.07.45.13.65.2-1.93.33-3.73,1.12-5.4,2.35-1.67,1.23-3,2.72-4,4.45-1,1.73-1.5,3.6-1.5,5.6,0,2.47.63,4.33,1.9,5.6,1.27,1.27,3.13,1.9,5.6,1.9,2.2,0,4.15-.58,5.85-1.75,1.7-1.17,3.03-2.7,4-4.6.97-1.9,1.45-3.95,1.45-6.15Z" fill="#fff" stroke-width="0"/><path d="m109.66,42.7c-2.37-1.43-5.32-2.15-8.85-2.15-4.4,0-8.53.77-12.4,2.3-3.87,1.53-7.38,3.65-10.55,6.35-3.17,2.7-5.88,5.78-8.15,9.25-2.27,3.47-4.02,7.13-5.25,11-1.23,3.87-1.85,7.77-1.85,11.7,0,3.07.78,5.65,2.35,7.75,1.57,2.1,3.67,3.68,6.3,4.75,2.63,1.07,5.52,1.6,8.65,1.6,4.07,0,7.73-.65,11-1.95,3.27-1.3,6.1-2.98,8.5-5.05,2.4-2.07,4.33-4.2,5.8-6.4l-1.6-.8c-2.67,2.67-5.33,4.5-8,5.5-2.67,1-4.67,1.5-6,1.5-2.47,0-4.47-.65-6-1.95-1.53-1.3-2.3-3.88-2.3-7.75,0-1.65.12-3.34.34-5.06,2.28-.53,4.58-1.17,6.91-1.94,3.23-1.07,6.32-2.33,9.25-3.8,2.93-1.47,5.57-3.12,7.9-4.95,2.33-1.83,4.17-3.87,5.5-6.1,1.33-2.23,2-4.62,2-7.15,0-3-1.18-5.22-3.55-6.65Zm-12,13.05c-1.7,3.33-3.88,6.3-6.55,8.9-1.73,1.67-3.63,3.2-5.7,4.6-1.15.78-2.31,1.49-3.47,2.14.15-.86.32-1.72.52-2.59.77-3.3,1.77-6.52,3-9.65,1.23-3.13,2.62-5.95,4.15-8.45,1.53-2.5,3.08-4.5,4.65-6,1.57-1.5,3.02-2.25,4.35-2.25.53,0,.93.18,1.2.55.27.37.4,1.02.4,1.95,0,3.87-.85,7.47-2.55,10.8Z" fill="#fff" stroke-width="0"/><path d="m162.01,83.25c-1.07,2.8-2.07,4.55-3,5.25-.94.7-1.7,1.05-2.3,1.05s-1.1-.28-1.5-.85c-.4-.57-.3-1.68.3-3.35l19.6-71c-3.93,1.27-8.07,2.25-12.4,2.95-4.33.7-9.23,1.08-14.7,1.15l-.7,2.1c3.27,0,5.3.53,6.1,1.6.8,1.07.87,2.73.2,5l-4.23,15.94c-.25-.48-.55-.91-.92-1.29-.83-.83-2.55-1.25-5.15-1.25-4.47,0-8.48.9-12.05,2.7-3.57,1.8-6.72,4.2-9.45,7.2-2.73,3-5.02,6.27-6.85,9.8-1.83,3.53-3.22,7.08-4.15,10.65-.93,3.57-1.4,6.82-1.4,9.75,0,3.47.6,6.27,1.8,8.4,1.2,2.13,2.78,3.7,4.75,4.7,1.97,1,4.08,1.5,6.35,1.5,3.93,0,7.17-1.07,9.7-3.2,2.53-2.13,4.75-5.3,6.65-9.5.23-.51.46-1.04.7-1.58-.41,1.86-.62,3.54-.59,5.03.03,2.23.52,4.05,1.45,5.45,1.73,2.53,4.73,3.8,9,3.8,1.8,0,3.62-.28,5.45-.85,1.83-.57,3.53-1.58,5.1-3.05,1.56-1.47,2.81-3.6,3.75-6.4l2.5-7.3h-1.9l-2.1,5.6Zm-24.7-1.45c-1.4,2.57-2.68,4.42-3.85,5.55-1.17,1.13-2.15,1.7-2.95,1.7-.94,0-1.57-.48-1.9-1.45-.33-.97-.5-2.38-.5-4.25,0-4.2.4-8.28,1.2-12.25.8-3.97,1.87-7.65,3.2-11.05,1.33-3.4,2.78-6.4,4.35-9,1.57-2.6,3.12-4.62,4.65-6.05,1.53-1.43,2.9-2.15,4.1-2.15,1.33,0,2.2.37,2.6,1.1.21.38.4.86.57,1.4l-6.16,23.22c-.34,1.07-.67,2.1-1.01,3.07-1.47,4.2-2.9,7.58-4.3,10.15Z" fill="#fff" stroke-width="0"/><path d="m220.11,49.35c0-3-1.18-5.22-3.55-6.65-2.37-1.43-5.32-2.15-8.85-2.15-4.4,0-8.54.77-12.4,2.3-3.87,1.53-7.38,3.65-10.55,6.35-3.17,2.7-5.88,5.78-8.15,9.25-2.27,3.47-4.02,7.13-5.25,11-1.23,3.87-1.85,7.77-1.85,11.7,0,3.07.78,5.65,2.35,7.75,1.57,2.1,3.67,3.68,6.3,4.75,2.63,1.07,5.52,1.6,8.65,1.6,4.06,0,7.73-.65,11-1.95,3.27-1.3,6.1-2.98,8.5-5.05,2.4-2.07,4.33-4.2,5.8-6.4l-1.6-.8c-2.67,2.67-5.33,4.5-8,5.5s-4.67,1.5-6,1.5c-2.47,0-4.47-.65-6-1.95s-2.3-3.88-2.3-7.75c0-1.65.12-3.34.34-5.06,2.28-.53,4.58-1.17,6.91-1.94,3.23-1.07,6.31-2.33,9.25-3.8,2.93-1.47,5.56-3.12,7.9-4.95,2.33-1.83,4.17-3.87,5.5-6.1,1.33-2.23,2-4.62,2-7.15Zm-15.55,6.4c-1.7,3.33-3.88,6.3-6.55,8.9-1.73,1.67-3.63,3.2-5.7,4.6-1.15.78-2.31,1.49-3.47,2.14.15-.86.32-1.72.52-2.59.77-3.3,1.77-6.52,3-9.65,1.23-3.13,2.62-5.95,4.15-8.45s3.08-4.5,4.65-6,3.02-2.25,4.35-2.25c.53,0,.93.18,1.2.55.27.37.4,1.02.4,1.95,0,3.87-.85,7.47-2.55,10.8Z" fill="#fff" stroke-width="0"/><path d="m261.26,45c-1.7-1.63-3.87-2.78-6.5-3.45-2.63-.67-5.35-1-8.15-1-4.47,0-8.17.67-11.1,2-2.93,1.33-5.13,3.13-6.6,5.4-1.47,2.27-2.2,4.83-2.2,7.7s.6,5.35,1.8,7.65c1.2,2.3,2.6,4.75,4.2,7.35,1.73,2.73,3.13,5.33,4.2,7.8,1.07,2.47,1.6,4.83,1.6,7.1s-.68,4.18-2.05,5.55c-1.37,1.37-3.08,2.05-5.15,2.05-.67,0-1.29-.05-1.85-.15-.57-.1-1.12-.28-1.65-.55.46-1,1.05-2.4,1.75-4.2.7-1.8,1.05-3.77,1.05-5.9,0-2.67-.6-4.8-1.8-6.4-1.2-1.6-2.77-2.4-4.7-2.4-2.07,0-3.72.87-4.95,2.6-1.23,1.73-1.85,3.83-1.85,6.3,0,3.27.88,5.83,2.65,7.7,1.77,1.87,4.07,3.18,6.9,3.95,2.83.77,5.82,1.15,8.95,1.15,4.4,0,8.08-.68,11.05-2.05,2.97-1.37,5.2-3.18,6.7-5.45,1.5-2.27,2.25-4.77,2.25-7.5,0-2.27-.45-4.58-1.35-6.95-.9-2.37-2.45-5.42-4.65-9.15-.93-1.6-1.87-3.15-2.8-4.65s-1.68-3-2.25-4.5-.85-2.98-.85-4.45c.07-2.53.68-4.47,1.85-5.8,1.17-1.33,2.92-2,5.25-2,1.13,0,1.97.13,2.5.4-.73.8-1.45,2.03-2.15,3.7-.7,1.67-1.05,3.57-1.05,5.7,0,2.47.57,4.48,1.7,6.05,1.13,1.57,2.7,2.35,4.7,2.35,1.6,0,2.92-.45,3.95-1.35,1.03-.9,1.82-2.05,2.35-3.45.53-1.4.8-2.77.8-4.1,0-3.07-.85-5.42-2.55-7.05Z" fill="#fff" stroke-width="0"/></g><text transform="translate(165.86 144.56)" fill="#fff" font-size="23.1"><tspan x="0" y="0" font-family="Poppins-Regular, Poppins">do </tspan><tspan x="36.57" y="0" font-family="PlayfairDisplayItalic-Black, &apos;Playfair Display&apos;" font-variation-settings="&apos;wght&apos; 900" font-weight="800" letter-spacing="0em">básico</tspan><tspan x="105.42" y="0" xml:space="preserve" font-family="Poppins-Regular, Poppins"> ao </tspan><tspan x="148.16" y="0" font-family="PlayfairDisplayItalic-Black, &apos;Playfair Display&apos;" font-variation-settings="&apos;wght&apos; 900" font-weight="800">p</tspan><tspan x="162.14" y="0" font-family="PlayfairDisplayItalic-Black, &apos;Playfair Display&apos;" font-variation-settings="&apos;wght&apos; 900" font-weight="800" letter-spacing="0em">r</tspan><tspan x="173.44" y="0" font-family="PlayfairDisplayItalic-Black, &apos;Playfair Display&apos;" font-variation-settings="&apos;wght&apos; 900" font-weight="800">ofissiona</tspan><tspan x="269.59" y="0" font-family="PlayfairDisplayItalic-Black, &apos;Playfair Display&apos;" font-variation-settings="&apos;wght&apos; 900" font-weight="800" letter-spacing="-.02em">l</tspan></text><rect x="154.43" y="122.91" width="303" height="30.15" rx="15.07" ry="15.07" fill="none" stroke="#fff" stroke-miterlimit="10"/></svg>